<?xml version="1.0" encoding="utf-8" ?>
<svg xmlns="http://www.w3.org/2000/svg" xmlns:ev="http://www.w3.org/2001/xml-events" xmlns:xlink="http://www.w3.org/1999/xlink" baseProfile="full" height="133.22392994111976cm" version="1.1" viewBox="-30.690530000000003 -142.556989932161 126.20476000004231 133.22392994111976" width="126.20476000004231cm">
  <defs/>
  <path d="M -22.237950000000005,-12.333059991041225 L 21.242449999999987,-12.333059991041225 Q 22.01929186846726,-21.762598594246654 22.562853894417753,-29.37437618149673 Q 23.8294051767552,-47.1105428078188 23.82939999999999,-54.97745999104123 Q 23.82938158668382,-66.74876674002749 22.10124999999999,-78.46115999104123 L 20.965831126534564,-78.46115999104123 L -1.06545943673272,-78.46115999104123 L -23.096750000000004,-78.46115999104123 Q -24.82488158781245,-66.74876671394584 -24.824900000000003,-54.97745999104123 Q -24.824905175037415,-47.110542623053504 -23.558353902486157,-29.374376180989195 Q -23.014791874232824,-21.762598581755043 -22.237950000000005,-12.333059991041225" fill="rgb(227,175,186)" stroke="rgb(51,51,51)" stroke-width="0.2"/>
  <path d="M 0.0,-83.50364829637591 L 28.690530000000003,-83.50364829637591 L 28.690530000000003,-117.30049342324693 C 18.867833,-117.59175992324694 18.656453,-125.76559742324693 17.2284,-138.81555342324694 L 12.8474,-140.55698981529378 Q 10.692012143206203,-129.58891624328345 0.0,-126.32928267127309 L 0.0,-83.50364829637591" fill="rgb(227,175,186)" stroke="rgb(51,51,51)" stroke-width="0.2"/>
  <path d="M 0.0,-83.50364829637591 L 0.0,-126.32928267127309 Q -10.692012143206203,-129.58891624328345 -12.8474,-140.55698981529378 L -17.2284,-138.81555342324694 C -18.656453,-125.76559742324693 -18.867833,-117.59175992324694 -28.690530000000003,-117.30049342324693 L -28.690530000000003,-83.50364829637591 L 0.0,-83.50364829637591" fill="rgb(227,175,186)" stroke="rgb(51,51,51)" stroke-width="0.2"/>
  <path d="M 66.51543000002115,-83.59285668570652 L 66.51543000002115,-135.2406767374435 Q 68.97417131949291,-134.75338371665111 79.36283000002115,-140.556989932161 L 83.74383000002116,-138.81555272184517 C 83.93754550002116,-126.25933172184514 83.40832300002116,-118.45579547184515 92.73728500002116,-117.30049272184516 L 92.73728500002116,-83.59285668570652 L 91.25867124572574,-83.59285668570652 L 80.61719832397453,-83.59285668570652 L 74.68076843668261,-83.59285668570652 L 66.51543000002115,-83.59285668570652" fill="rgb(227,175,186)" stroke="rgb(51,51,51)" stroke-width="0.2"/>
  <path d="M 66.51543000002115,-83.59285668570652 L 56.87147828733907,-83.59285668570652 L 50.93504830738705,-83.59285668570652 L 40.29357500002115,-83.59285668570652 L 40.29357500002115,-117.30049272184516 C 49.622537000021154,-118.45579547184515 49.09331450002115,-126.25933172184514 49.28703000002115,-138.81555272184517 L 53.668030000021155,-140.556989932161 Q 64.0566886805494,-134.75338371665111 66.51543000002115,-135.2406767374435 L 66.51543000002115,-83.59285668570652" fill="rgb(227,175,186)" stroke="rgb(51,51,51)" stroke-width="0.2"/>
  <path d="M 41.27748000002115,-11.333059991041225 Q 40.50063812578833,-20.762598581755043 39.957076097534994,-28.374376180989195 Q 38.69052482498374,-46.110542623053504 38.690530000021155,-53.97745999104123 Q 38.6905301960475,-66.34967076101924 40.818522822952076,-78.63534499104124 L 48.99004807730714,-78.63534499104124 L 50.419037371574404,-59.66729947480319 L 51.84802666584167,-78.63534499104124 L 56.40657660537971,-78.63534499104124 L 57.83556589964698,-57.548378310037315 L 59.26455519391425,-78.63534499104124 L 66.67008943675387,-78.63534499104124 L 72.94020517339253,-78.63534499104124 L 74.3691944676598,-57.548378310037315 L 75.79818376192706,-78.63534499104124 L 80.35673363031194,-78.63534499104124 L 81.7857229245792,-59.66729947480319 L 83.21471221884647,-78.63534499104124 L 91.38623717709024,-78.63534499104124 Q 93.51422980210857,-66.34967081844354 93.51423000002116,-53.97745999104123 Q 93.51423517677637,-46.11054280781881 92.24768389443891,-28.37437618149673 Q 91.70412186848841,-20.762598594246654 90.92728000002116,-11.333059991041225 L 41.27748000002115,-11.333059991041225" fill="rgb(227,175,186)" stroke="rgb(51,51,51)" stroke-width="0.2"/>
  <text dominant-baseline="middle" fill="rgb(31,31,31)" font-size="7" text-anchor="middle" x="-0.4977499999999999" y="-45.397109991041226">skirt_front</text>
  <text dominant-baseline="middle" fill="rgb(31,31,31)" font-size="7" text-anchor="middle" x="14.345265000000001" y="-112.03031905583484">left_ftorso</text>
  <text dominant-baseline="middle" fill="rgb(31,31,31)" font-size="7" text-anchor="middle" x="-14.345265000000001" y="-112.03031905583484">right_ftorso</text>
  <text dominant-baseline="middle" fill="rgb(31,31,31)" font-size="7" text-anchor="middle" x="79.62635750002116" y="-112.07492330893376">left_btorso</text>
  <text dominant-baseline="middle" fill="rgb(31,31,31)" font-size="7" text-anchor="middle" x="53.40450250002115" y="-112.07492330893376">right_btorso</text>
  <text dominant-baseline="middle" fill="rgb(31,31,31)" font-size="7" text-anchor="middle" x="66.10238000002116" y="-44.98420249104123">skirt_back</text>
</svg>
